0
SECTION
2
HEADER
9
$INSUNITS
70
4
9
$ACADVER
1
AC1014
9
$HANDSEED
5
FFFF
0
ENDSEC
0
SECTION
2
TABLES
0
TABLE
2
VPORT
5
8
100
AcDbSymbolTable
0
ENDTAB
0
TABLE
2
LTYPE
5
5
100
AcDbSymbolTable
0
LTYPE
5
14
100
AcDbSymbolTableRecord
100
AcDbLinetypeTableRecord
2
BYBLOCK
70
0
0
LTYPE
5
15
100
AcDbSymbolTableRecord
100
AcDbLinetypeTableRecord
2
BYLAYER
70
0
0
ENDTAB
0
TABLE
2
LAYER
5
2
100
AcDbSymbolTable
70
2
0
LAYER
5
50
100
AcDbSymbolTableRecord
100
AcDbLayerTableRecord
2
0
70
0
6
CONTINUOUS
0
ENDTAB
0
TABLE
2
STYLE
5
3
100
AcDbSymbolTable
70
1
0
STYLE
5
11
100
AcDbSymbolTableRecord
100
AcDbTextStyleTableRecord
2
STANDARD
70
0
0
ENDTAB
0
TABLE
2
VIEW
5
6
100
AcDbSymbolTable
70
0
0
ENDTAB
0
TABLE
2
UCS
5
7
100
AcDbSymbolTable
70
0
0
ENDTAB
0
TABLE
2
APPID
5
9
100
AcDbSymbolTable
70
2
0
APPID
5
12
100
AcDbSymbolTableRecord
100
AcDbRegAppTableRecord
2
ACAD
70
0
0
ENDTAB
0
TABLE
2
DIMSTYLE
5
A
100
AcDbSymbolTable
70
1
0
ENDTAB
0
TABLE
2
BLOCK_RECORD
5
1
100
AcDbSymbolTable
70
1
0
BLOCK_RECORD
5
1F
100
AcDbSymbolTableRecord
100
AcDbBlockTableRecord
2
*MODEL_SPACE
0
BLOCK_RECORD
5
1B
100
AcDbSymbolTableRecord
100
AcDbBlockTableRecord
2
*PAPER_SPACE
0
ENDTAB
0
ENDSEC
0
SECTION
2
BLOCKS
0
BLOCK
5
20
100
AcDbEntity
100
AcDbBlockBegin
2
*MODEL_SPACE
0
ENDBLK
5
21
100
AcDbEntity
100
AcDbBlockEnd
0
BLOCK
5
1C
100
AcDbEntity
100
AcDbBlockBegin
2
*PAPER_SPACE
0
ENDBLK
5
1D
100
AcDbEntity
100
AcDbBlockEnd
0
ENDSEC
0
SECTION
2
ENTITIES
0
LWPOLYLINE
5
100
100
AcDbEntity
8
0
100
AcDbPolyline
90
4
70
1
43
0.0
10
-1433.0364176144994
20
-417.21817987466898
10
-1409.2273446504635
20
-282.19021723178139
10
-1527.2597071021182
20
-282.19021723178139
10
-1503.4506341380825
20
-417.21817987466898
0
ARC
5
101
100
AcDbEntity
8
0
100
AcDbCircle
10
-1400.7188706166723
20
-552.14323056247918
30
7.1054273576010031e-14
40
1.5875000000000088
100
AcDbArc
50
45
51
225
0
LINE
5
102
100
AcDbEntity
8
0
100
AcDbLine
10
-1399.5963386015387
20
-551.02069854734555
30
7.1054273576010019e-14
11
-1372.3364666620732
21
-551.02069854734555
31
7.1054273576010019e-14
0
ARC
5
103
100
AcDbEntity
8
0
100
AcDbCircle
10
-1371.2139346469396
20
-552.14323056247918
30
7.1054273576010019e-14
40
1.5875000000000088
100
AcDbArc
50
-45
51
135
0
LINE
5
104
100
AcDbEntity
8
0
100
AcDbLine
10
-1370.091402631806
20
-553.2657625776128
30
7.1054273576010019e-14
11
-1370.091402631806
21
-562.02069854734555
31
7.1054273576010044e-14
0
LINE
5
105
100
AcDbEntity
8
0
100
AcDbLine
10
-1370.091402631806
20
-562.02069854734555
30
7.1054273576010044e-14
11
-1344.6914026318061
21
-562.02069854734555
31
7.1054273567738212e-14
0
LINE
5
106
100
AcDbEntity
8
0
100
AcDbLine
10
-1344.6914026318061
20
-562.02069854734555
30
7.1054273567738212e-14
11
-1344.6914026318061
21
-553.26576257761292
31
7.1054273576010019e-14
0
ARC
5
107
100
AcDbEntity
8
0
100
AcDbCircle
10
-1343.5688706166725
20
-552.14323056247918
30
7.1054273576010031e-14
40
1.5875000000000088
100
AcDbArc
50
44.999999999994202
51
225.0000000000029
0
LINE
5
108
100
AcDbEntity
8
0
100
AcDbLine
10
-1342.4463386015386
20
-551.02069854734555
30
7.1054273576010019e-14
11
-1319.2914026318058
21
-551.02069854734555
31
7.1054273567738212e-14
0
LINE
5
109
100
AcDbEntity
8
0
100
AcDbLine
10
-1319.2914026318058
20
-551.02069854734555
30
7.1054273567738212e-14
11
-1319.2914026318053
21
-537.62069854734557
31
-3.1554436208840472e-29
0
LINE
5
110
100
AcDbEntity
8
0
100
AcDbLine
10
-1319.2914026318053
20
-537.62069854734557
30
-3.1554436208840472e-29
11
-1332.6026877876416
21
-537.62069854734568
31
7.1054273580145922e-14
0
ARC
5
111
100
AcDbEntity
8
0
100
AcDbCircle
10
-1333.7252198027752
20
-536.49816653221194
30
7.1054273576010019e-14
40
1.5874999999999586
100
AcDbArc
50
135.00000000004644
51
314.9999999999971
0
LINE
5
112
100
AcDbEntity
8
0
100
AcDbLine
10
-1334.8477518179097
20
-535.37563451707922
30
7.1054273576666591e-14
11
-1334.8477518179097
21
-527.16576257761199
31
7.1054273576009993e-14
0
ARC
5
113
100
AcDbEntity
8
0
100
AcDbCircle
10
-1333.7252198027752
20
-526.04323056247927
30
7.1054273576010019e-14
40
1.5875000000000088
100
AcDbArc
50
45
51
224.99999879257479
0
LINE
5
114
100
AcDbEntity
8
0
100
AcDbLine
10
-1332.6026877876416
20
-524.92069854734564
30
7.1054273576010019e-14
11
-1319.2914026318049
21
-524.92069854734564
31
7.1054273571874116e-14
0
LINE
5
115
100
AcDbEntity
8
0
100
AcDbLine
10
-1319.2914026318049
20
-524.92069854734564
30
7.1054273571874116e-14
11
-1319.2914026318053
21
-499.52069854734555
31
-6.3108872417680944e-29
0
LINE
5
116
100
AcDbEntity
8
0
100
AcDbLine
10
-1319.2914026318053
20
-499.52069854734555
30
-6.3108872417680944e-29
11
-1332.6026877876418
21
-499.5206985473456
31
4.1359030627651384e-24
0
ARC
5
117
100
AcDbEntity
8
0
100
AcDbCircle
10
-1333.7252198027752
20
-498.3981665322118
30
7.1054273576010006e-14
40
1.5875000000000592
100
AcDbArc
50
135.00000000006094
51
314.99999879263572
0
LINE
5
118
100
AcDbEntity
8
0
100
AcDbLine
10
-1334.8477518179102
20
-497.2756345170792
30
7.1054273576666591e-14
11
-1334.8477518179097
21
-489.06576257761196
31
-3.1554436208840472e-29
0
ARC
5
119
100
AcDbEntity
8
0
100
AcDbCircle
10
-1333.7252198027752
20
-487.94323056247924
30
8.0470853508439799e-38
40
1.5875000000000088
100
AcDbArc
50
45
51
224.99999879257763
0
LINE
5
120
100
AcDbEntity
8
0
100
AcDbLine
10
-1332.6026877876416
20
-486.82069854734561
30
-6.5657461121342909e-25
11
-1319.2914026318049
21
-486.82069854734556
31
-4.1359030627651384e-24
0
LINE
5
121
100
AcDbEntity
8
0
100
AcDbLine
10
-1319.2914026318049
20
-486.82069854734556
30
-4.1359030627651384e-24
11
-1319.2914026318053
21
-461.42069854734552
31
7.1054273576009955e-14
0
LINE
5
122
100
AcDbEntity
8
0
100
AcDbLine
10
-1319.2914026318053
20
-461.42069854734552
30
7.1054273576009955e-14
11
-1332.6026877876418
21
-461.42069854734558
31
4.1359030627651384e-24
0
ARC
5
123
100
AcDbEntity
8
0
100
AcDbCircle
10
-1333.7252198027752
20
-460.29816653221195
30
1.0388890502872756e-38
40
1.5874999999999586
100
AcDbArc
50
135.00000000004789
51
314.9999999999942
0
LINE
5
124
100
AcDbEntity
8
0
100
AcDbLine
10
-1334.8477518179097
20
-459.17563451707929
30
6.5657461121396596e-25
11
-1334.8477518179093
21
-442.16621466236984
31
-6.3108872417680944e-29
0
ARC
5
125
100
AcDbEntity
8
0
100
AcDbCircle
10
-1333.7252198027759
20
-441.04368264723598
30
-7.168908418833189e-38
40
1.5875000000000592
100
AcDbArc
50
44.999999999995659
51
225.00000000001162
0
LINE
5
126
100
AcDbEntity
8
0
100
AcDbLine
10
-1332.602687787642
20
-439.9211506321023
30
-1.9473370020168234e-37
11
-1319.2914026318049
21
-439.9211506321023
31
-4.1359030627651384e-24
0
LINE
5
127
100
AcDbEntity
8
0
100
AcDbLine
10
-1319.2914026318049
20
-439.9211506321023
30
-4.1359030627651384e-24
11
-1319.2914026318058
21
-109.30078837357385
31
7.1054273576009009e-14
0
LINE
5
128
100
AcDbEntity
8
0
100
AcDbLine
10
-1319.2914026318058
20
-109.30078837357385
30
7.1054273576009009e-14
11
-1378.7422736634846
21
-109.30078837357385
31
0
0
LINE
5
129
100
AcDbEntity
8
0
100
AcDbLine
10
-1378.7422736634846
20
-109.30078837357385
30
0
11
-1396.1569219146284
21
-208.06416639532117
31
7.1054273584281825e-14
0
LINE
5
130
100
AcDbEntity
8
0
100
AcDbLine
10
-1396.1569219146284
20
-208.06416639532117
30
7.1054273584281825e-14
11
-1540.3301298379531
21
-208.06416639532117
31
7.1054273642184468e-14
0
LINE
5
131
100
AcDbEntity
8
0
100
AcDbLine
10
-1540.3301298379531
20
-208.06416639532117
30
7.1054273642184468e-14
11
-1557.7447780890971
21
-109.30078837357385
31
7.1054273584281825e-14
0
LINE
5
132
100
AcDbEntity
8
0
100
AcDbLine
10
-1557.7447780890971
20
-109.30078837357385
30
7.1054273584281825e-14
11
-1624.0914026318057
21
-109.30078837357385
31
7.1054273609097243e-14
0
LINE
5
133
100
AcDbEntity
8
0
100
AcDbLine
10
-1624.0914026318057
20
-109.30078837357385
30
7.1054273609097243e-14
11
-1624.091402631806
21
-439.9211506321023
31
1.0097419586828951e-27
0
LINE
5
134
100
AcDbEntity
8
0
100
AcDbLine
10
-1624.091402631806
20
-439.9211506321023
30
1.0097419586828951e-27
11
-1610.7801174759707
21
-439.92115063210224
31
7.1054273571874116e-14
0
ARC
5
135
100
AcDbEntity
8
0
100
AcDbCircle
10
-1609.6575854608368
20
-441.04368264723604
30
1.04462876879715e-38
40
1.5875000000000088
100
AcDbArc
50
-45.000000000013074
51
135.00000000000145
0
LINE
5
136
100
AcDbEntity
8
0
100
AcDbLine
10
-1608.5350534457034
20
-442.16621466236995
30
-6.5657461121396586e-25
11
-1608.5350534457034
21
-459.17563451707792
31
7.1054273576010019e-14
0
ARC
5
137
100
AcDbEntity
8
0
100
AcDbCircle
10
-1609.6575854608368
20
-460.29816653221189
30
-1.0618479243267734e-38
40
1.5875000000000088
100
AcDbArc
50
-135.0000000000058
51
45.000000000014509
0
LINE
5
138
100
AcDbEntity
8
0
100
AcDbLine
10
-1610.7801174759707
20
-461.42069854734552
30
2.1018731831766832e-37
11
-1624.0914026318078
21
-461.42069854734541
31
7.1054273580145922e-14
0
LINE
5
139
100
AcDbEntity
8
0
100
AcDbLine
10
-1624.0914026318078
20
-461.42069854734541
30
7.1054273580145922e-14
11
-1624.0914026318073
21
-486.82069854734556
31
0
0
LINE
5
140
100
AcDbEntity
8
0
100
AcDbLine
10
-1624.0914026318073
20
-486.82069854734556
30
0
11
-1610.7801174759707
21
-486.82069854734556
31
7.1054273576010019e-14
0
ARC
5
141
100
AcDbEntity
8
0
100
AcDbCircle
10
-1609.6575854608368
20
-487.94323056247919
30
2.0835178190844256e-38
40
1.5875000000000088
100
AcDbArc
50
-45.000000000013074
51
135.0000000000058
0
LINE
5
142
100
AcDbEntity
8
0
100
AcDbLine
10
-1608.5350534457034
20
-489.0657625776131
30
-6.5657461121396596e-25
11
-1608.5350534457034
21
-497.27563451707795
31
7.1054273576010019e-14
0
ARC
5
143
100
AcDbEntity
8
0
100
AcDbCircle
10
-1609.6575854608368
20
-498.39816653221192
30
7.1054273576010006e-14
40
1.5875000000000088
100
AcDbArc
50
-135.0000000000058
51
45.000000000014509
0
LINE
5
144
100
AcDbEntity
8
0
100
AcDbLine
10
-1610.7801174759707
20
-499.52069854734555
30
7.1054273576010019e-14
11
-1624.0914026318078
21
-499.52069854734543
31
7.1054273580145922e-14
0
LINE
5
145
100
AcDbEntity
8
0
100
AcDbLine
10
-1624.0914026318078
20
-499.52069854734543
30
7.1054273580145922e-14
11
-1624.0914026318073
21
-524.92069854734552
31
6.3108872417680944e-29
0
LINE
5
146
100
AcDbEntity
8
0
100
AcDbLine
10
-1624.0914026318073
20
-524.92069854734552
30
6.3108872417680944e-29
11
-1610.7801174759709
21
-524.92069854734564
31
7.1054273576010019e-14
0
ARC
5
147
100
AcDbEntity
8
0
100
AcDbCircle
10
-1609.6575854608368
20
-526.04323056247927
30
7.1054273576010019e-14
40
1.5875000000000088
100
AcDbArc
50
-45.000000000011596
51
135.00000000001162
0
LINE
5
148
100
AcDbEntity
8
0
100
AcDbLine
10
-1608.5350534457034
20
-527.16576257761312
30
7.1054273575353447e-14
11
-1608.5350534457034
21
-535.37563451707786
31
7.1054273576010019e-14
0
ARC
5
149
100
AcDbEntity
8
0
100
AcDbCircle
10
-1609.6575854608368
20
-536.49816653221183
30
7.1054273576010006e-14
40
1.5875000000000592
100
AcDbArc
50
-135.0000000000058
51
45.000000000014509
0
LINE
5
150
100
AcDbEntity
8
0
100
AcDbLine
10
-1610.7801174759707
20
-537.62069854734546
30
7.1054273576010019e-14
11
-1624.0914026318078
21
-537.62069854734546
31
0
0
LINE
5
151
100
AcDbEntity
8
0
100
AcDbLine
10
-1624.0914026318078
20
-537.62069854734546
30
0
11
-1624.091402631806
21
-551.02069854734555
31
7.1054273576010019e-14
0
LINE
5
152
100
AcDbEntity
8
0
100
AcDbLine
10
-1624.091402631806
20
-551.02069854734555
30
7.1054273576010019e-14
11
-1600.9364666620731
21
-551.02069854734555
31
0
0
ARC
5
153
100
AcDbEntity
8
0
100
AcDbCircle
10
-1599.8139346469397
20
-552.14323056247918
30
-2.0720383820646767e-38
40
1.5875000000000088
100
AcDbArc
50
-45
51
134.9999999999942
0
LINE
5
154
100
AcDbEntity
8
0
100
AcDbLine
10
-1598.6914026318061
20
-553.2657625776128
30
-6.5657461121396568e-25
11
-1598.6914026318061
21
-562.02069854734555
31
7.1054273576010044e-14
0
LINE
5
155
100
AcDbEntity
8
0
100
AcDbLine
10
-1598.6914026318061
20
-562.02069854734555
30
7.1054273576010044e-14
11
-1573.2914026318058
21
-562.02069854734555
31
0
0
LINE
5
156
100
AcDbEntity
8
0
100
AcDbLine
10
-1573.2914026318058
20
-562.02069854734555
30
0
11
-1573.2914026318058
21
-553.26576257761292
31
-3.1554436208840472e-29
0
ARC
5
157
100
AcDbEntity
8
0
100
AcDbCircle
10
-1572.1688706166724
20
-552.14323056247918
30
0
40
1.5875000000000088
100
AcDbArc
50
45
51
225.00000000000873
0
LINE
5
158
100
AcDbEntity
8
0
100
AcDbLine
10
-1571.0463386015388
20
-551.02069854734555
30
0
11
-1543.7864666620731
21
-551.02069854734555
31
0
0
ARC
5
159
100
AcDbEntity
8
0
100
AcDbCircle
10
-1542.6639346469397
20
-552.14323056247918
30
0
40
1.5875000000000088
100
AcDbArc
50
-45
51
134.9999999999942
0
LINE
5
160
100
AcDbEntity
8
0
100
AcDbLine
10
-1541.541402631806
20
-553.2657625776128
30
0
11
-1541.541402631806
21
-562.02069854734555
31
7.1054273576010044e-14
0
LINE
5
161
100
AcDbEntity
8
0
100
AcDbLine
10
-1541.541402631806
20
-562.02069854734555
30
7.1054273576010044e-14
11
-1516.1414026318062
21
-562.02069854734555
31
-8.2718061255302767e-24
0
LINE
5
162
100
AcDbEntity
8
0
100
AcDbLine
10
-1516.1414026318062
20
-562.02069854734555
30
-8.2718061255302767e-24
11
-1516.1414026318059
21
-553.26576257761292
31
-3.1554436208840472e-29
0
ARC
5
163
100
AcDbEntity
8
0
100
AcDbCircle
10
-1515.0188706166725
20
-552.14323056247918
30
1.1938614500538858e-38
40
1.5875000000000088
100
AcDbArc
50
45
51
225.00000000000873
0
LINE
5
164
100
AcDbEntity
8
0
100
AcDbLine
10
-1513.8963386015389
20
-551.02069854734555
30
-2.7951255629154501e-38
11
-1486.6364666620734
21
-551.02069854734555
31
-8.2718061255302767e-24
0
ARC
5
165
100
AcDbEntity
8
0
100
AcDbCircle
10
-1485.5139346469398
20
-552.14323056247918
30
0
40
1.5875000000000088
100
AcDbArc
50
-45
51
135
0
LINE
5
166
100
AcDbEntity
8
0
100
AcDbLine
10
-1484.3914026318062
20
-553.2657625776128
30
0
11
-1484.3914026318062
21
-562.02069854734555
31
7.1054273576010044e-14
0
LINE
5
167
100
AcDbEntity
8
0
100
AcDbLine
10
-1484.3914026318062
20
-562.02069854734555
30
7.1054273576010044e-14
11
-1458.9914026318061
21
-562.02069854734555
31
-8.2718061255302767e-24
0
LINE
5
168
100
AcDbEntity
8
0
100
AcDbLine
10
-1458.9914026318061
20
-562.02069854734555
30
-8.2718061255302767e-24
11
-1458.9914026318061
21
-553.26576257761292
31
-3.1554436208840472e-29
0
ARC
5
169
100
AcDbEntity
8
0
100
AcDbCircle
10
-1457.8688706166724
20
-552.14323056247918
30
7.1054273576010031e-14
40
1.5875000000000088
100
AcDbArc
50
45
51
225.0000000000029
0
LINE
5
170
100
AcDbEntity
8
0
100
AcDbLine
10
-1456.7463386015388
20
-551.02069854734555
30
7.1054273576010019e-14
11
-1429.4864666620733
21
-551.02069854734555
31
-8.2718061255302767e-24
0
ARC
5
171
100
AcDbEntity
8
0
100
AcDbCircle
10
-1428.3639346469397
20
-552.14323056247918
30
0
40
1.5875000000000088
100
AcDbArc
50
-45
51
135
0
LINE
5
172
100
AcDbEntity
8
0
100
AcDbLine
10
-1427.2414026318061
20
-553.2657625776128
30
0
11
-1427.2414026318061
21
-562.02069854734555
31
7.1054273576010044e-14
0
LINE
5
173
100
AcDbEntity
8
0
100
AcDbLine
10
-1427.2414026318061
20
-562.02069854734555
30
7.1054273576010044e-14
11
-1401.841402631806
21
-562.02069854734555
31
7.1054273567738212e-14
0
LINE
5
174
100
AcDbEntity
8
0
100
AcDbLine
10
-1401.841402631806
20
-562.02069854734555
30
7.1054273567738212e-14
11
-1401.841402631806
21
-553.2657625776128
31
7.1054273576010044e-14
0
ENDSEC
0
SECTION
2
OBJECTS
0
DICTIONARY
5
C
100
AcDbDictionary
3
ACAD_GROUP
350
D
3
ACAD_MLINESTYLE
350
17
0
DICTIONARY
5
D
100
AcDbDictionary
0
DICTIONARY
5
1A
330
C
100
AcDbDictionary
0
DICTIONARY
5
17
100
AcDbDictionary
0
ENDSEC
0
EOF
