0
SECTION
2
HEADER
9
$INSUNITS
70
4
9
$ACADVER
1
AC1014
9
$HANDSEED
5
FFFF
0
ENDSEC
0
SECTION
2
TABLES
0
TABLE
2
VPORT
5
8
100
AcDbSymbolTable
0
ENDTAB
0
TABLE
2
LTYPE
5
5
100
AcDbSymbolTable
0
LTYPE
5
14
100
AcDbSymbolTableRecord
100
AcDbLinetypeTableRecord
2
BYBLOCK
70
0
0
LTYPE
5
15
100
AcDbSymbolTableRecord
100
AcDbLinetypeTableRecord
2
BYLAYER
70
0
0
ENDTAB
0
TABLE
2
LAYER
5
2
100
AcDbSymbolTable
70
2
0
LAYER
5
50
100
AcDbSymbolTableRecord
100
AcDbLayerTableRecord
2
0
70
0
6
CONTINUOUS
0
ENDTAB
0
TABLE
2
STYLE
5
3
100
AcDbSymbolTable
70
1
0
STYLE
5
11
100
AcDbSymbolTableRecord
100
AcDbTextStyleTableRecord
2
STANDARD
70
0
0
ENDTAB
0
TABLE
2
VIEW
5
6
100
AcDbSymbolTable
70
0
0
ENDTAB
0
TABLE
2
UCS
5
7
100
AcDbSymbolTable
70
0
0
ENDTAB
0
TABLE
2
APPID
5
9
100
AcDbSymbolTable
70
2
0
APPID
5
12
100
AcDbSymbolTableRecord
100
AcDbRegAppTableRecord
2
ACAD
70
0
0
ENDTAB
0
TABLE
2
DIMSTYLE
5
A
100
AcDbSymbolTable
70
1
0
ENDTAB
0
TABLE
2
BLOCK_RECORD
5
1
100
AcDbSymbolTable
70
1
0
BLOCK_RECORD
5
1F
100
AcDbSymbolTableRecord
100
AcDbBlockTableRecord
2
*MODEL_SPACE
0
BLOCK_RECORD
5
1B
100
AcDbSymbolTableRecord
100
AcDbBlockTableRecord
2
*PAPER_SPACE
0
ENDTAB
0
ENDSEC
0
SECTION
2
BLOCKS
0
BLOCK
5
20
100
AcDbEntity
100
AcDbBlockBegin
2
*MODEL_SPACE
0
ENDBLK
5
21
100
AcDbEntity
100
AcDbBlockEnd
0
BLOCK
5
1C
100
AcDbEntity
100
AcDbBlockBegin
2
*PAPER_SPACE
0
ENDBLK
5
1D
100
AcDbEntity
100
AcDbBlockEnd
0
ENDSEC
0
SECTION
2
ENTITIES
0
ARC
5
100
100
AcDbEntity
8
0
100
AcDbCircle
10
1279.3054391196301
20
-315.19301078188113
30
3.8111730905566353e-38
40
1.5874999999998831
100
AcDbArc
50
134.99999999999275
51
314.9999999999913
0
LINE
5
101
100
AcDbEntity
8
0
100
AcDbLine
10
1278.1829071044967
20
-314.07047876674744
30
1.6660132516993683e-38
11
1278.1829071044986
21
-286.8106068272819
31
0
0
ARC
5
102
100
AcDbEntity
8
0
100
AcDbCircle
10
1279.3054391196324
20
-285.68807481214833
30
1.107765672405769e-38
40
1.5875000000000088
100
AcDbArc
50
45
51
224.99999999999275
0
LINE
5
103
100
AcDbEntity
8
0
100
AcDbLine
10
1280.427971134766
20
-284.5655427970147
30
1.1743515211667344e-38
11
1289.182907104499
21
-284.56554279701538
31
4.1214900809886847e-30
0
LINE
5
104
100
AcDbEntity
8
0
100
AcDbLine
10
1289.182907104499
20
-284.56554279701538
30
4.1214900809886847e-30
11
1289.1829071045004
21
-259.16554279701529
31
0
0
LINE
5
105
100
AcDbEntity
8
0
100
AcDbLine
10
1289.1829071045004
20
-259.16554279701529
30
0
11
1280.4279711347679
21
-259.16554279701478
31
3.543711097672514e-30
0
ARC
5
106
100
AcDbEntity
8
0
100
AcDbCircle
10
1279.3054391196338
20
-258.04301078188104
30
4.8224733793330185e-39
40
1.5874999999998582
100
AcDbArc
50
134.99999999999275
51
315.0000000000087
0
LINE
5
107
100
AcDbEntity
8
0
100
AcDbLine
10
1278.1829071045004
20
-256.92047876674735
30
6.5657461121398148e-25
11
1278.182907104502
21
-233.76554279701458
31
0
0
LINE
5
108
100
AcDbEntity
8
0
100
AcDbLine
10
1278.182907104502
20
-233.76554279701458
30
0
11
1267.0279711347691
21
-233.76554279701421
31
-2.4276346949001108e-30
0
ARC
5
109
100
AcDbEntity
8
0
100
AcDbCircle
10
1265.9054391196357
20
-232.64301078188041
30
0
40
1.5874999999999586
100
AcDbArc
50
134.99999999999855
51
314.99999999998988
0
LINE
5
110
100
AcDbEntity
8
0
100
AcDbLine
10
1264.7829071045021
20
-231.52047876674672
30
0
11
1264.7829071045026
21
-222.76554279701404
31
0
0
LINE
5
111
100
AcDbEntity
8
0
100
AcDbLine
10
1264.7829071045026
20
-222.76554279701404
30
0
11
1252.0829071045025
21
-222.76554279701321
31
1.8009370909965042e-29
0
LINE
5
112
100
AcDbEntity
8
0
100
AcDbLine
10
1252.0829071045025
20
-222.76554279701321
30
1.8009370909965042e-29
11
1252.0829071045021
21
-231.5204787667459
31
0
0
ARC
5
113
100
AcDbEntity
8
0
100
AcDbCircle
10
1250.9603750893684
20
-232.64301078187947
30
-5.7397185098744507e-41
40
1.5875000000000339
100
AcDbArc
50
-135.00000000000509
51
44.99999999999855
0
LINE
5
114
100
AcDbEntity
8
0
100
AcDbLine
10
1249.8378430742346
20
-233.76554279701313
30
6.5657461121396568e-25
11
1228.9279711347692
21
-233.7655427970117
31
-1.1983136113977381e-29
0
ARC
5
115
100
AcDbEntity
8
0
100
AcDbCircle
10
1227.8054391196356
20
-232.64301078187796
30
-1.4235611735529317e-38
40
1.5874999999999837
100
AcDbArc
50
134.99999999999204
51
314.9999999999971
0
LINE
5
116
100
AcDbEntity
8
0
100
AcDbLine
10
1226.6829071045022
20
-231.52047876674425
30
6.5657461121394979e-25
11
1226.6829071045026
21
-222.76554279701156
31
0
0
LINE
5
117
100
AcDbEntity
8
0
100
AcDbLine
10
1226.6829071045026
20
-222.76554279701156
30
0
11
1213.9829071045026
21
-222.76554279701074
31
1.8005519050076268e-29
0
LINE
5
118
100
AcDbEntity
8
0
100
AcDbLine
10
1213.9829071045026
20
-222.76554279701074
30
1.8005519050076268e-29
11
1213.9829071045021
21
-231.52047876674345
31
0
0
ARC
5
119
100
AcDbEntity
8
0
100
AcDbCircle
10
1212.8603750893683
20
-232.643010781877
30
1.5096569512008133e-38
40
1.5874999999999084
100
AcDbArc
50
-135.00000000000071
51
44.999998792583469
0
LINE
5
120
100
AcDbEntity
8
0
100
AcDbLine
10
1211.7378430742347
20
-233.7655427970106
30
-6.5657461121396173e-25
11
1190.8279711347693
21
-233.76554279700923
31
-1.1973506464255445e-29
0
ARC
5
121
100
AcDbEntity
8
0
100
AcDbCircle
10
1189.7054391196357
20
-232.64301078187549
30
-7.6923326342723352e-39
40
1.5874999999999586
100
AcDbArc
50
134.99999999999855
51
314.9999999999971
0
LINE
5
122
100
AcDbEntity
8
0
100
AcDbLine
10
1188.5829071045021
20
-231.5204787667418
30
6.5657461121396274e-25
11
1188.5829071045027
21
-222.76554279700912
31
0
0
LINE
5
123
100
AcDbEntity
8
0
100
AcDbLine
10
1188.5829071045027
20
-222.76554279700912
30
0
11
1167.0833591892595
21
-222.76554279700741
31
1.4338548435962971e-29
0
LINE
5
124
100
AcDbEntity
8
0
100
AcDbLine
10
1167.0833591892595
20
-222.76554279700741
30
1.4338548435962971e-29
11
1167.0833591892383
21
-549.56554279700845
31
0
0
LINE
5
125
100
AcDbEntity
8
0
100
AcDbLine
10
1167.0833591892383
20
-549.56554279700845
30
0
11
1188.5829071044814
21
-549.56554279700981
31
-2.8885097305919763e-29
0
LINE
5
126
100
AcDbEntity
8
0
100
AcDbLine
10
1188.5829071044814
20
-549.56554279700981
30
-2.8885097305919763e-29
11
1188.582907104482
21
-539.81060682727707
31
0
0
ARC
5
127
100
AcDbEntity
8
0
100
AcDbCircle
10
1189.7054391196157
20
-538.68807481214344
30
2.0892575375943001e-38
40
1.5874999999999586
100
AcDbArc
50
44.999999999997094
51
225
0
LINE
5
128
100
AcDbEntity
8
0
100
AcDbLine
10
1190.8279711347493
20
-537.56554279700993
30
-6.5657461121396559e-25
11
1211.7378430742151
21
-537.56554279701129
31
0
0
ARC
5
129
100
AcDbEntity
8
0
100
AcDbCircle
10
1212.8603750893485
20
-538.68807481214515
30
2.0837397852927453e-38
40
1.5874999999999586
100
AcDbArc
50
-45
51
134.9999999999884
0
LINE
5
130
100
AcDbEntity
8
0
100
AcDbLine
10
1213.9829071044821
20
-539.81060682727878
30
-6.5657461121395218e-25
11
1213.9829071044815
21
-549.5655427970114
31
0
0
LINE
5
131
100
AcDbEntity
8
0
100
AcDbLine
10
1213.9829071044815
20
-549.5655427970114
30
0
11
1226.6829071044815
21
-549.56554279701231
31
-3.2969994717965091e-29
0
LINE
5
132
100
AcDbEntity
8
0
100
AcDbLine
10
1226.6829071044815
20
-549.56554279701231
30
-3.2969994717965091e-29
11
1226.682907104482
21
-539.81060682727968
31
0
0
ARC
5
133
100
AcDbEntity
8
0
100
AcDbCircle
10
1227.8054391196158
20
-538.68807481214606
30
0
40
1.5875000000000592
100
AcDbArc
50
45.000000000002906
51
224.9999999999942
0
LINE
5
134
100
AcDbEntity
8
0
100
AcDbLine
10
1228.9279711347494
20
-537.56554279701231
30
-6.5657461121396568e-25
11
1249.837843074215
21
-537.56554279701379
31
0
0
ARC
5
135
100
AcDbEntity
8
0
100
AcDbCircle
10
1250.9603750893486
20
-538.68807481214753
30
0
40
1.5875000000000088
100
AcDbArc
50
-45.000000000008704
51
134.9999999999971
0
LINE
5
136
100
AcDbEntity
8
0
100
AcDbLine
10
1252.082907104482
20
-539.81060682728128
30
0
11
1252.0829071044816
21
-549.5655427970139
31
0
0
LINE
5
137
100
AcDbEntity
8
0
100
AcDbLine
10
1252.0829071044816
20
-549.5655427970139
30
0
11
1264.7829071044814
21
-549.5655427970147
31
-3.2966142858076316e-29
0
LINE
5
138
100
AcDbEntity
8
0
100
AcDbLine
10
1264.7829071044814
20
-549.5655427970147
30
-3.2966142858076316e-29
11
1264.7829071044821
21
-539.81060682728207
31
0
0
ARC
5
139
100
AcDbEntity
8
0
100
AcDbCircle
10
1265.9054391196157
20
-538.68807481214844
30
0
40
1.5875000000000088
100
AcDbArc
50
45
51
225
0
LINE
5
140
100
AcDbEntity
8
0
100
AcDbLine
10
1267.0279711347494
20
-537.56554279701481
30
-6.5657461121396568e-25
11
1278.1829071044822
21
-537.56554279701561
31
1.6062255736189547e-30
0
LINE
5
141
100
AcDbEntity
8
0
100
AcDbLine
10
1278.1829071044822
20
-537.56554279701561
30
1.6062255736189547e-30
11
1278.1829071044835
21
-515.41060682728175
31
0
0
ARC
5
142
100
AcDbEntity
8
0
100
AcDbCircle
10
1279.3054391196174
20
-514.28807481214824
30
-2.8813386919569743e-38
40
1.5875000000000592
100
AcDbArc
50
45
51
224.9999999999913
0
LINE
5
143
100
AcDbEntity
8
0
100
AcDbLine
10
1280.427971134751
20
-513.16554279701461
30
-6.5657461121397082e-25
11
1289.182907104484
21
-513.16554279701518
31
4.1099345013223613e-30
0
LINE
5
144
100
AcDbEntity
8
0
100
AcDbLine
10
1289.182907104484
20
-513.16554279701518
30
4.1099345013223613e-30
11
1289.1829071044856
21
-487.76554279701514
31
0
0
LINE
5
145
100
AcDbEntity
8
0
100
AcDbLine
10
1289.1829071044856
20
-487.76554279701514
30
0
11
1280.4279711347531
21
-487.76554279701475
31
5.8519381360206161e-30
0
ARC
5
146
100
AcDbEntity
8
0
100
AcDbCircle
10
1279.305439119619
20
-486.64301078188095
30
0
40
1.5874999999998582
100
AcDbArc
50
134.99999999999275
51
315.00000000000728
0
LINE
5
147
100
AcDbEntity
8
0
100
AcDbLine
10
1278.1829071044856
20
-485.52047876674726
30
0
11
1278.1829071044874
21
-458.26060682728183
31
7.1054273576010019e-14
0
ARC
5
148
100
AcDbEntity
8
0
100
AcDbCircle
10
1279.305439119621
20
-457.1380748121482
30
-1.5956417457450973e-38
40
1.5874999999999586
100
AcDbArc
50
44.999999999997094
51
225
0
LINE
5
149
100
AcDbEntity
8
0
100
AcDbLine
10
1280.4279711347547
20
-456.01554279701469
30
-6.5657461121398662e-25
11
1289.1829071044876
21
-456.01554279701526
31
-4.2052680335695295e-30
0
LINE
5
150
100
AcDbEntity
8
0
100
AcDbLine
10
1289.1829071044876
20
-456.01554279701526
30
-4.2052680335695295e-30
11
1289.1829071044892
21
-430.61554279701522
31
1.6543612251060553e-23
0
LINE
5
151
100
AcDbEntity
8
0
100
AcDbLine
10
1289.1829071044892
20
-430.61554279701522
30
1.6543612251060553e-23
11
1280.4279711347565
21
-430.61554279701477
31
1.2749656231843501e-30
0
ARC
5
152
100
AcDbEntity
8
0
100
AcDbCircle
10
1279.3054391196231
20
-429.49301078188103
30
1.9115482299959892e-38
40
1.5875000000000088
100
AcDbArc
50
135
51
314.9999999999913
0
LINE
5
153
100
AcDbEntity
8
0
100
AcDbLine
10
1278.1829071044895
20
-428.3704787667474
30
6.5657461121400517e-25
11
1278.1829071044911
21
-401.11060682728186
31
0
0
ARC
5
154
100
AcDbEntity
8
0
100
AcDbCircle
10
1279.3054391196247
20
-399.98807481214828
30
-6.3136903608618958e-40
40
1.5874999999999586
100
AcDbArc
50
44.999999999992745
51
224.99999999999855
0
LINE
5
155
100
AcDbEntity
8
0
100
AcDbLine
10
1280.4279711347585
20
-398.86554279701471
30
-2.8353698034137609e-39
11
1289.1829071044915
21
-398.86554279701528
31
1.1661505813264713e-30
0
LINE
5
156
100
AcDbEntity
8
0
100
AcDbLine
10
1289.1829071044915
20
-398.86554279701528
30
1.1661505813264713e-30
11
1289.1829071044931
21
-373.4655427970153
31
1.6543612251060553e-23
0
LINE
5
157
100
AcDbEntity
8
0
100
AcDbLine
10
1289.1829071044931
20
-373.4655427970153
30
1.6543612251060553e-23
11
1280.4279711347604
21
-373.46554279701479
31
-5.1422329515139197e-31
0
ARC
5
158
100
AcDbEntity
8
0
100
AcDbCircle
10
1279.3054391196265
20
-372.34301078188116
30
-3.4782694169839171e-38
40
1.5874999999998582
100
AcDbArc
50
134.99999999999275
51
315.0000000000058
0
LINE
5
159
100
AcDbEntity
8
0
100
AcDbLine
10
1278.1829071044931
20
-371.22047876674748
30
6.5657461121394309e-25
11
1278.1829071044947
21
-343.96060682728194
31
0
0
ARC
5
160
100
AcDbEntity
8
0
100
AcDbCircle
10
1279.3054391196283
20
-342.83807481214831
30
5.7397185098744507e-41
40
1.5874999999999586
100
AcDbArc
50
44.999999999992745
51
225
0
LINE
5
161
100
AcDbEntity
8
0
100
AcDbLine
10
1280.4279711347622
20
-341.71554279701473
30
-6.5657461121396568e-25
11
1289.1829071044954
21
-341.7155427970153
31
-4.050230673046357e-30
0
LINE
5
162
100
AcDbEntity
8
0
100
AcDbLine
10
1289.1829071044954
20
-341.7155427970153
30
-4.050230673046357e-30
11
1289.1829071044967
21
-316.31554279701527
31
1.6543612251060553e-23
0
LINE
5
163
100
AcDbEntity
8
0
100
AcDbLine
10
1289.1829071044967
20
-316.31554279701527
30
1.6543612251060553e-23
11
1280.4279711347635
21
-316.31554279701487
31
5.9643736493741475e-38
0
ENDSEC
0
SECTION
2
OBJECTS
0
DICTIONARY
5
C
100
AcDbDictionary
3
ACAD_GROUP
350
D
3
ACAD_MLINESTYLE
350
17
0
DICTIONARY
5
D
100
AcDbDictionary
0
DICTIONARY
5
1A
330
C
100
AcDbDictionary
0
DICTIONARY
5
17
100
AcDbDictionary
0
ENDSEC
0
EOF
