0
SECTION
2
HEADER
9
$INSUNITS
70
4
9
$ACADVER
1
AC1014
9
$HANDSEED
5
FFFF
0
ENDSEC
0
SECTION
2
TABLES
0
TABLE
2
VPORT
5
8
100
AcDbSymbolTable
0
ENDTAB
0
TABLE
2
LTYPE
5
5
100
AcDbSymbolTable
0
LTYPE
5
14
100
AcDbSymbolTableRecord
100
AcDbLinetypeTableRecord
2
BYBLOCK
70
0
0
LTYPE
5
15
100
AcDbSymbolTableRecord
100
AcDbLinetypeTableRecord
2
BYLAYER
70
0
0
ENDTAB
0
TABLE
2
LAYER
5
2
100
AcDbSymbolTable
70
2
0
LAYER
5
50
100
AcDbSymbolTableRecord
100
AcDbLayerTableRecord
2
0
70
0
6
CONTINUOUS
0
ENDTAB
0
TABLE
2
STYLE
5
3
100
AcDbSymbolTable
70
1
0
STYLE
5
11
100
AcDbSymbolTableRecord
100
AcDbTextStyleTableRecord
2
STANDARD
70
0
0
ENDTAB
0
TABLE
2
VIEW
5
6
100
AcDbSymbolTable
70
0
0
ENDTAB
0
TABLE
2
UCS
5
7
100
AcDbSymbolTable
70
0
0
ENDTAB
0
TABLE
2
APPID
5
9
100
AcDbSymbolTable
70
2
0
APPID
5
12
100
AcDbSymbolTableRecord
100
AcDbRegAppTableRecord
2
ACAD
70
0
0
ENDTAB
0
TABLE
2
DIMSTYLE
5
A
100
AcDbSymbolTable
70
1
0
ENDTAB
0
TABLE
2
BLOCK_RECORD
5
1
100
AcDbSymbolTable
70
1
0
BLOCK_RECORD
5
1F
100
AcDbSymbolTableRecord
100
AcDbBlockTableRecord
2
*MODEL_SPACE
0
BLOCK_RECORD
5
1B
100
AcDbSymbolTableRecord
100
AcDbBlockTableRecord
2
*PAPER_SPACE
0
ENDTAB
0
ENDSEC
0
SECTION
2
BLOCKS
0
BLOCK
5
20
100
AcDbEntity
100
AcDbBlockBegin
2
*MODEL_SPACE
0
ENDBLK
5
21
100
AcDbEntity
100
AcDbBlockEnd
0
BLOCK
5
1C
100
AcDbEntity
100
AcDbBlockBegin
2
*PAPER_SPACE
0
ENDBLK
5
1D
100
AcDbEntity
100
AcDbBlockEnd
0
ENDSEC
0
SECTION
2
ENTITIES
0
ARC
5
100
100
AcDbEntity
8
0
100
AcDbCircle
10
2031.0292134269937
20
-543.10705684789968
30
0
40
1.5875000000000183
100
AcDbArc
50
-45.498803187114213
51
134.50119681287711
0
LINE
5
101
100
AcDbEntity
8
0
100
AcDbLine
10
2032.1419305353663
20
-544.23931869338196
30
0
11
2032.0657131448445
21
-552.99392289594311
31
0
0
LINE
5
102
100
AcDbEntity
8
0
100
AcDbLine
10
2032.0657131448445
20
-552.99392289594311
30
0
11
2063.8145099826816
21
-553.2703272188802
31
0
0
LINE
5
103
100
AcDbEntity
8
0
100
AcDbLine
10
2063.8145099826816
20
-553.2703272188802
30
0
11
2063.8907273732034
21
-544.51572301631904
31
0
0
ARC
5
104
100
AcDbEntity
8
0
100
AcDbCircle
10
2065.0229892186862
20
-543.40300590794652
30
-3.8573340296050124e-44
40
1.5874999999998662
100
AcDbArc
50
44.501196812891529
51
224.5011968128685
0
LINE
5
105
100
AcDbEntity
8
0
100
AcDbLine
10
2066.1552510641682
20
-542.290288799574
30
2.5046333740768784e-30
11
2087.0643306267284
21
-542.47232278370393
31
0
0
ARC
5
106
100
AcDbEntity
8
0
100
AcDbCircle
10
2088.177047735101
20
-543.60458462918643
30
0
40
1.5874999999998698
100
AcDbArc
50
-45.498803187128772
51
134.5011968128801
0
LINE
5
107
100
AcDbEntity
8
0
100
AcDbLine
10
2089.2897648434732
20
-544.73684647466882
30
0
11
2089.2135474529514
21
-553.49145067722998
31
0
0
LINE
5
108
100
AcDbEntity
8
0
100
AcDbLine
10
2089.2135474529514
20
-553.49145067722998
30
0
11
2120.9623442907887
21
-553.76785500016706
31
0
0
LINE
5
109
100
AcDbEntity
8
0
100
AcDbLine
10
2120.9623442907887
20
-553.76785500016706
30
0
11
2121.0385616813101
21
-545.01325079760591
31
0
0
ARC
5
110
100
AcDbEntity
8
0
100
AcDbCircle
10
2122.1708235267934
20
-543.9005336892335
30
2.1895288505075267e-46
40
1.5874999999998662
100
AcDbArc
50
44.501196812894442
51
224.50119681285409
0
LINE
5
111
100
AcDbEntity
8
0
100
AcDbLine
10
2123.3030853722753
20
-542.78781658086086
30
2.5046333740767123e-30
11
2144.2121649348351
21
-542.96985056499079
31
0
0
ARC
5
112
100
AcDbEntity
8
0
100
AcDbCircle
10
2145.3248820432077
20
-544.10211241047341
30
-1.5392387819067913e-43
40
1.5875000000001669
100
AcDbArc
50
-45.498803187099611
51
134.50119681287717
0
LINE
5
113
100
AcDbEntity
8
0
100
AcDbLine
10
2146.4375991515808
20
-545.23437425595557
30
3.6609370040525408e-43
11
2146.3613817610581
21
-553.98897845851673
31
0
0
LINE
5
114
100
AcDbEntity
8
0
100
AcDbLine
10
2146.3613817610581
20
-553.98897845851673
30
0
11
2171.7604192313293
21
-554.21010191686594
31
0
0
LINE
5
115
100
AcDbEntity
8
0
100
AcDbLine
10
2171.7604192313293
20
-554.21010191686594
30
0
11
2189.8766087590466
21
-536.40662818290548
31
0
0
LINE
5
116
100
AcDbEntity
8
0
100
AcDbLine
10
2189.8766087590466
20
-536.40662818290548
30
0
11
2183.7400625944938
21
-530.16229435098774
31
0
0
ARC
5
117
100
AcDbEntity
8
0
100
AcDbCircle
10
2183.7538828106408
20
-528.57485450909599
30
4.3790577010150533e-46
40
1.5875000000000044
100
AcDbArc
50
89.5011968128928
51
269.5011968128764
0
LINE
5
118
100
AcDbEntity
8
0
100
AcDbLine
10
2183.7677030267873
20
-526.98741466720412
30
-5.0092667481534289e-30
11
2198.6813724384278
21
-512.33118018473351
31
0
0
ARC
5
119
100
AcDbEntity
8
0
100
AcDbCircle
10
2200.2688122803197
20
-512.34500040088051
30
-4.8169634711165587e-45
40
1.587500000000003
100
AcDbArc
50
-0.49880318711563909
51
179.50119681287708
0
LINE
5
120
100
AcDbEntity
8
0
100
AcDbLine
10
2201.8562521222116
20
-512.35882061702728
30
-6.6545056144703891e-43
11
2207.9927982867639
21
-518.60315444894491
31
0
0
LINE
5
121
100
AcDbEntity
8
0
100
AcDbLine
10
2207.9927982867639
20
-518.60315444894491
30
0
11
2230.6380351964108
21
-496.34881228149436
31
0
0
LINE
5
122
100
AcDbEntity
8
0
100
AcDbLine
10
2230.6380351964108
20
-496.34881228149436
30
0
11
2224.5014890318585
21
-490.10447844957673
31
0
0
ARC
5
123
100
AcDbEntity
8
0
100
AcDbCircle
10
2224.515309248005
20
-488.51703860768487
30
-4.7211715839068544e-46
40
1.5875000000000044
100
AcDbArc
50
89.501196812876387
51
269.50119681289283
0
LINE
5
124
100
AcDbEntity
8
0
100
AcDbLine
10
2224.529129464152
20
-486.929598765793
30
-2.8478228598633287e-45
11
2239.4427988757921
21
-472.27336428332251
31
0
0
ARC
5
125
100
AcDbEntity
8
0
100
AcDbCircle
10
2241.0302387176839
20
-472.28718449946939
30
0
40
1.5875000000000044
100
AcDbArc
50
-0.4988031871192522
51
179.50119681288075
0
LINE
5
126
100
AcDbEntity
8
0
100
AcDbLine
10
2242.6176785595758
20
-472.30100471561627
30
0
11
2248.7542247241286
21
-478.5453385475339
31
0
0
LINE
5
127
100
AcDbEntity
8
0
100
AcDbLine
10
2248.7542247241286
20
-478.5453385475339
30
0
11
2271.399461633775
21
-456.29099638008336
31
0
0
LINE
5
128
100
AcDbEntity
8
0
100
AcDbLine
10
2271.399461633775
20
-456.29099638008336
30
0
11
2265.2629154692222
21
-450.04666254816561
31
0
0
ARC
5
129
100
AcDbEntity
8
0
100
AcDbCircle
10
2265.2767356853692
20
-448.45922270627392
30
-8.7923267903192868e-46
40
1.5875000000000044
100
AcDbArc
50
89.501196812876387
51
269.50119681287629
0
LINE
5
130
100
AcDbEntity
8
0
100
AcDbLine
10
2265.2905559015162
20
-446.87178286438206
30
1.5839203791170623e-45
11
2280.2042253131563
21
-432.21554838191145
31
0
0
ARC
5
131
100
AcDbEntity
8
0
100
AcDbCircle
10
2281.7916651550481
20
-432.22936859805839
30
-4.8169634711165587e-45
40
1.587500000000003
100
AcDbArc
50
-0.49880318711563909
51
179.50119681287853
0
LINE
5
132
100
AcDbEntity
8
0
100
AcDbLine
10
2283.37910499694
20
-432.24318881420515
30
-6.6545056144703891e-43
11
2289.5156511614923
21
-438.4875226461229
31
0
0
LINE
5
133
100
AcDbEntity
8
0
100
AcDbLine
10
2289.5156511614923
20
-438.4875226461229
30
0
11
2312.1608880711397
21
-416.23318047867235
31
0
0
LINE
5
134
100
AcDbEntity
8
0
100
AcDbLine
10
2312.1608880711397
20
-416.23318047867235
30
0
11
2306.0243419065869
21
-409.98884664675467
31
0
0
ARC
5
135
100
AcDbEntity
8
0
100
AcDbCircle
10
2306.0381621227339
20
-408.40140680486292
30
8.6554812371625664e-46
40
1.5875000000000044
100
AcDbArc
50
89.501196812876387
51
269.5011968128764
0
LINE
5
136
100
AcDbEntity
8
0
100
AcDbLine
10
2306.0519823388809
20
-406.81396696297105
30
-1.7139753122419056e-46
11
2320.9656517505205
21
-392.15773248050039
31
0
0
ARC
5
137
100
AcDbEntity
8
0
100
AcDbCircle
10
2322.5530915924123
20
-392.17155269664738
30
-3.4211388289180104e-48
40
1.5875000000000044
100
AcDbArc
50
-0.4988031871192522
51
179.50119681287708
0
LINE
5
138
100
AcDbEntity
8
0
100
AcDbLine
10
2324.1405314343042
20
-392.18537291279426
30
-3.913489646994863e-32
11
2330.277077598857
21
-398.42970674471184
31
0
0
LINE
5
139
100
AcDbEntity
8
0
100
AcDbLine
10
2330.277077598857
20
-398.42970674471184
30
0
11
2352.9223145085034
21
-376.17536457726118
31
0
0
LINE
5
140
100
AcDbEntity
8
0
100
AcDbLine
10
2352.9223145085034
20
-376.17536457726118
30
0
11
2346.7857683439511
21
-369.93103074534366
31
0
0
ARC
5
141
100
AcDbEntity
8
0
100
AcDbCircle
10
2346.7995885600981
20
-368.34359090345174
30
0
40
1.5875000000000781
100
AcDbArc
50
89.501196812876415
51
269.5011968128764
0
LINE
5
142
100
AcDbEntity
8
0
100
AcDbLine
10
2346.8134087762451
20
-366.75615106155982
30
0
11
2361.7270781878851
21
-352.09991657908938
31
0
0
ARC
5
143
100
AcDbEntity
8
0
100
AcDbCircle
10
2363.3145180297765
20
-352.11373679523626
30
4.3790577010150533e-46
40
1.5875000000000039
100
AcDbArc
50
-0.49880318711563909
51
179.50119681288075
0
LINE
5
144
100
AcDbEntity
8
0
100
AcDbLine
10
2364.9019578716684
20
-352.12755701138303
30
-3.9134896469948641e-32
11
2371.0385040362212
21
-358.37189084330072
31
0
0
LINE
5
145
100
AcDbEntity
8
0
100
AcDbLine
10
2371.0385040362212
20
-358.37189084330072
30
0
11
2389.154693563939
21
-340.56841710934032
31
0
0
LINE
5
146
100
AcDbEntity
8
0
100
AcDbLine
10
2389.154693563939
20
-340.56841710934032
30
0
11
2389.3758170222886
21
-315.16937963906935
31
0
0
LINE
5
147
100
AcDbEntity
8
0
100
AcDbLine
10
2389.3758170222886
20
-315.16937963906935
30
0
11
2380.621212819728
21
-315.0931622485474
31
2.4651903288156619e-31
0
ARC
5
148
100
AcDbEntity
8
0
100
AcDbCircle
10
2379.508495711355
20
-313.96090040306512
30
-6.6561677055428811e-44
40
1.5874999999998445
100
AcDbArc
50
134.50119681287126
51
314.50119681289755
0
LINE
5
149
100
AcDbEntity
8
0
100
AcDbLine
10
2378.3957786029828
20
-312.82863855758274
30
3.8776458399793795e-44
11
2378.5778125871129
21
-291.91955899502267
31
0
0
ARC
5
150
100
AcDbEntity
8
0
100
AcDbCircle
10
2379.7100744325953
20
-290.80684188665026
30
1.5786503012159267e-43
40
1.5874999999999659
100
AcDbArc
50
44.501196812897369
51
224.50119681287708
0
LINE
5
151
100
AcDbEntity
8
0
100
AcDbLine
10
2380.8423362780773
20
-289.69412477827751
30
2.5046333740767123e-30
11
2389.5969404806388
21
-289.77034216879952
31
0
0
LINE
5
152
100
AcDbEntity
8
0
100
AcDbLine
10
2389.5969404806388
20
-289.77034216879952
30
0
11
2389.8733448035759
21
-258.02154533096234
31
0
0
LINE
5
153
100
AcDbEntity
8
0
100
AcDbLine
10
2389.8733448035759
20
-258.02154533096234
30
0
11
2381.1187406010149
21
-257.94532794044039
31
2.4651903288156619e-31
0
ARC
5
154
100
AcDbEntity
8
0
100
AcDbCircle
10
2380.0060234926423
20
-256.81306609495812
30
-8.539162516979354e-44
40
1.5875000000000437
100
AcDbArc
50
134.50119681288294
51
314.50119681288578
0
LINE
5
155
100
AcDbEntity
8
0
100
AcDbLine
10
2378.8933063842696
20
-255.68080424947573
30
2.5046333740767102e-30
11
2379.0753403683998
21
-234.77172468691577
31
0
0
ARC
5
156
100
AcDbEntity
8
0
100
AcDbCircle
10
2380.2076022138817
20
-233.65900757854308
30
2.9908964097932814e-43
40
1.5874999999999695
100
AcDbArc
50
44.501196812877822
51
224.5011968128959
0
LINE
5
157
100
AcDbEntity
8
0
100
AcDbLine
10
2381.3398640593641
20
-232.54629047017065
30
-3.3353083225511711e-43
11
2390.0944682619256
21
-232.62250786069256
31
0
0
LINE
5
158
100
AcDbEntity
8
0
100
AcDbLine
10
2390.0944682619256
20
-232.62250786069256
30
0
11
2390.3708725848624
21
-200.87371102285539
31
0
0
LINE
5
159
100
AcDbEntity
8
0
100
AcDbLine
10
2390.3708725848624
20
-200.87371102285539
30
0
11
2381.6162683823013
21
-200.79749363233338
31
2.4651903288156619e-31
0
ARC
5
160
100
AcDbEntity
8
0
100
AcDbCircle
10
2380.5035512739287
20
-199.66523178685111
30
0
40
1.5875000000000437
100
AcDbArc
50
134.50119681287265
51
314.50119681288578
0
LINE
5
161
100
AcDbEntity
8
0
100
AcDbLine
10
2379.3908341655565
20
-198.53296994136878
30
0
11
2379.5728681496867
21
-177.62389037880871
31
0
0
ARC
5
162
100
AcDbEntity
8
0
100
AcDbCircle
10
2380.705129995169
20
-176.51117327043622
30
0
40
1.5875000000000687
100
AcDbArc
50
44.501196812881474
51
224.50119681287927
0
LINE
5
163
100
AcDbEntity
8
0
100
AcDbLine
10
2381.8373918406514
20
-175.39845616206364
30
2.5046333740767123e-30
11
2390.5919960432125
21
-175.47467355258561
31
0
0
LINE
5
164
100
AcDbEntity
8
0
100
AcDbLine
10
2390.5919960432125
20
-175.47467355258561
30
0
11
2390.8684003661492
21
-143.72587671474844
31
0
0
LINE
5
165
100
AcDbEntity
8
0
100
AcDbLine
10
2390.8684003661492
20
-143.72587671474844
30
0
11
2382.1137961635886
21
-143.64965932422652
31
4.9303806576313238e-31
0
ARC
5
166
100
AcDbEntity
8
0
100
AcDbCircle
10
2381.0010790552155
20
-142.51739747874416
30
2.4084817355582793e-45
40
1.5874999999998318
100
AcDbArc
50
134.50119681287265
51
314.50119681289539
0
LINE
5
167
100
AcDbEntity
8
0
100
AcDbLine
10
2379.8883619468434
20
-141.38513563326183
30
2.5046333740767116e-30
11
2380.0703959309731
21
-120.47605607070167
31
0
0
ARC
5
168
100
AcDbEntity
8
0
100
AcDbCircle
10
2381.2026577764555
20
-119.36333896232912
30
2.7807016401445589e-43
40
1.58750000000011
100
AcDbArc
50
44.501196812875257
51
224.50119681288078
0
LINE
5
169
100
AcDbEntity
8
0
100
AcDbLine
10
2382.3349196219378
20
-118.25062185395679
30
1.2361651738464844e-43
11
2391.0895238244993
21
-118.32683924447866
31
0
0
LINE
5
170
100
AcDbEntity
8
0
100
AcDbLine
10
2391.0895238244993
20
-118.32683924447866
30
0
11
2391.3659281474365
21
-86.578042406641472
31
0
0
LINE
5
171
100
AcDbEntity
8
0
100
AcDbLine
10
2391.3659281474365
20
-86.578042406641472
30
0
11
2382.611323944875
21
-86.501825016119525
31
0
0
ARC
5
172
100
AcDbEntity
8
0
100
AcDbCircle
10
2381.4986068365029
20
-85.369563170637193
30
3.2186074102460642e-44
40
1.5875000000000687
100
AcDbArc
50
134.50119681288294
51
314.50119681287265
0
LINE
5
173
100
AcDbEntity
8
0
100
AcDbLine
10
2380.3858897281302
20
-84.237301325154803
30
1.5779048859798095e-43
11
2380.5679237122599
21
-63.328221762594794
31
0
0
ARC
5
174
100
AcDbEntity
8
0
100
AcDbCircle
10
2381.7001855577428
20
-62.215504654222244
30
0
40
1.587499999999854
100
AcDbArc
50
44.501196812892609
51
224.50119681286927
0
LINE
5
175
100
AcDbEntity
8
0
100
AcDbLine
10
2382.8324474032247
20
-61.102787545849679
30
0
11
2391.5870516057862
21
-61.179004936371641
31
0
0
LINE
5
176
100
AcDbEntity
8
0
100
AcDbLine
10
2391.5870516057862
20
-61.179004936371641
30
0
11
2391.8081750641354
21
-35.779967466101887
31
0
0
LINE
5
177
100
AcDbEntity
8
0
100
AcDbLine
10
2391.8081750641354
20
-35.779967466101887
30
0
11
2374.0047013301746
21
-17.663777938383287
31
0
0
LINE
5
178
100
AcDbEntity
8
0
100
AcDbLine
10
2374.0047013301746
20
-17.663777938383287
30
0
11
2367.7603674982574
21
-23.800324102936045
31
0
0
ARC
5
179
100
AcDbEntity
8
0
100
AcDbCircle
10
2366.1729276563656
20
-23.78650388678922
30
-1.2261361562842149e-44
40
1.5875000000000041
100
AcDbArc
50
179.50119681288146
51
359.50119681288294
0
LINE
5
180
100
AcDbEntity
8
0
100
AcDbLine
10
2364.5854878144737
20
-23.772683670642365
30
-1.0202309123285972e-43
11
2349.9292533320026
21
-8.8590142590023078
31
0
0
ARC
5
181
100
AcDbEntity
8
0
100
AcDbCircle
10
2349.9430735481496
20
-7.2715744171104753
30
1.4060880586853023e-45
40
1.5874999999999999
100
AcDbArc
50
89.501196812876387
51
269.5011968128764
0
LINE
5
182
100
AcDbEntity
8
0
100
AcDbLine
10
2349.9568937642966
20
-5.6841345752186161
30
2.505027797414947e-45
11
2356.2012275962143
21
0.45241158933422065
31
0
0
LINE
5
183
100
AcDbEntity
8
0
100
AcDbLine
10
2356.2012275962143
20
0.45241158933422065
30
0
11
2333.9468854287638
21
23.097648498980995
31
0
0
LINE
5
184
100
AcDbEntity
8
0
100
AcDbLine
10
2333.9468854287638
20
23.097648498980995
30
0
11
2327.7025515968462
21
16.96110233442824
31
0
0
ARC
5
185
100
AcDbEntity
8
0
100
AcDbCircle
10
2326.1151117549543
20
16.974922550574988
30
0
40
1.5875000000000041
100
AcDbArc
50
179.50119681288146
51
359.5011968128851
0
LINE
5
186
100
AcDbEntity
8
0
100
AcDbLine
10
2324.5276719130625
20
16.988742766721845
30
0
11
2309.8714374305919
21
31.902412178361939
31
0
0
ARC
5
187
100
AcDbEntity
8
0
100
AcDbCircle
10
2309.8852576467389
20
33.489852020253878
30
-2.3646911585481288e-43
40
1.5874999999999264
100
AcDbArc
50
89.501196812892786
51
269.5011968128764
0
LINE
5
188
100
AcDbEntity
8
0
100
AcDbLine
10
2309.8990778628854
20
35.077291862145664
30
-5.0092667481534205e-30
11
2316.143411694803
21
41.213838026698461
31
0
0
LINE
5
189
100
AcDbEntity
8
0
100
AcDbLine
10
2316.143411694803
20
41.213838026698461
30
0
11
2293.8890695273526
21
63.859074936345266
31
0
0
LINE
5
190
100
AcDbEntity
8
0
100
AcDbLine
10
2293.8890695273526
20
63.859074936345266
30
0
11
2287.644735695435
21
57.722528771792483
31
0
0
ARC
5
191
100
AcDbEntity
8
0
100
AcDbCircle
10
2286.0572958535431
20
57.736348987939301
30
-6.8422776578360209e-48
40
1.5875000000000044
100
AcDbArc
50
179.50119681288001
51
359.50119681288294
0
LINE
5
192
100
AcDbEntity
8
0
100
AcDbLine
10
2284.4698560116512
20
57.750169204086205
30
3.9134896469948625e-32
11
2269.8136215291806
21
72.663838615726206
31
0
0
ARC
5
193
100
AcDbEntity
8
0
100
AcDbCircle
10
2269.8274417453276
20
74.251278457618156
30
-2.1544963888994062e-43
40
1.587499999999922
100
AcDbArc
50
89.501196812892786
51
269.5011968128764
0
LINE
5
194
100
AcDbEntity
8
0
100
AcDbLine
10
2269.8412619614742
20
75.838718299509935
30
-5.0092667481534205e-30
11
2276.0855957933918
21
81.975264464062732
31
0
0
LINE
5
195
100
AcDbEntity
8
0
100
AcDbLine
10
2276.0855957933918
20
81.975264464062732
30
0
11
2253.8312536259418
21
104.62050137370957
31
0
0
LINE
5
196
100
AcDbEntity
8
0
100
AcDbLine
10
2253.8312536259418
20
104.62050137370957
30
0
11
2247.5869197940242
21
98.483955209156761
31
0
0
ARC
5
197
100
AcDbEntity
8
0
100
AcDbCircle
10
2245.9994799521319
20
98.497775425303644
30
2.2237402387967068e-46
40
1.5875000000000037
100
AcDbArc
50
179.50119681288362
51
359.50119681288078
0
LINE
5
198
100
AcDbEntity
8
0
100
AcDbLine
10
2244.41204011024
20
98.511595641450441
30
3.913489646994863e-32
11
2229.7558056277699
21
113.42526505309047
31
0
0
ARC
5
199
100
AcDbEntity
8
0
100
AcDbCircle
10
2229.7696258439164
20
115.01270489498238
30
1.296611616159926e-45
40
1.5875000000000044
100
AcDbArc
50
89.501196812876387
51
269.50119681289283
0
LINE
5
200
100
AcDbEntity
8
0
100
AcDbLine
10
2229.7834460600634
20
116.60014473687424
30
2.5050277974149479e-45
11
2236.027779891981
21
122.73669090142704
31
0
0
LINE
5
201
100
AcDbEntity
8
0
100
AcDbLine
10
2236.027779891981
20
122.73669090142704
30
0
11
2213.7734377245306
21
145.38192781107387
31
0
0
LINE
5
202
100
AcDbEntity
8
0
100
AcDbLine
10
2213.7734377245306
20
145.38192781107387
30
0
11
2207.529103892613
21
139.24538164652103
31
0
0
ARC
5
203
100
AcDbEntity
8
0
100
AcDbCircle
10
2205.9416640507206
20
139.25920186266782
30
0
40
1.5875000000000052
100
AcDbArc
50
179.50119681287779
51
359.50119681288442
0
LINE
5
204
100
AcDbEntity
8
0
100
AcDbLine
10
2204.3542242088288
20
139.27302207881479
30
0
11
2189.6979897263591
21
154.18669149045488
31
0
0
ARC
5
205
100
AcDbEntity
8
0
100
AcDbCircle
10
2189.7118099425056
20
155.77413133234668
30
0
40
1.5875000000000044
100
AcDbArc
50
89.5011968128928
51
269.50119681289277
0
LINE
5
206
100
AcDbEntity
8
0
100
AcDbLine
10
2189.7256301586522
20
157.36157117423855
30
0
11
2195.9699639905698
21
163.49811733879136
31
0
0
LINE
5
207
100
AcDbEntity
8
0
100
AcDbLine
10
2195.9699639905698
20
163.49811733879136
30
0
11
2178.1664902566085
21
181.61430686650931
31
0
0
LINE
5
208
100
AcDbEntity
8
0
100
AcDbLine
10
2178.1664902566085
20
181.61430686650931
30
0
11
2152.7674527863387
21
181.83543032485892
31
0
0
LINE
5
209
100
AcDbEntity
8
0
100
AcDbLine
10
2152.7674527863387
20
181.83543032485892
30
0
11
2152.6912353958169
21
173.08082612229788
31
0
0
ARC
5
210
100
AcDbEntity
8
0
100
AcDbCircle
10
2151.558973550334
20
171.96810901392536
30
-6.7875394365733327e-45
40
1.5874999999998662
100
AcDbArc
50
-135.49880318710703
51
44.501196812868514
0
LINE
5
211
100
AcDbEntity
8
0
100
AcDbLine
10
2150.4267117048521
20
170.85539190555278
30
-5.0092667481536153e-30
11
2129.5176321422919
21
171.03742588968288
31
0
0
ARC
5
212
100
AcDbEntity
8
0
100
AcDbCircle
10
2128.4049150339197
20
172.1696877351653
30
-1.2261361562842149e-44
40
1.5875000000000437
100
AcDbArc
50
134.50119681288368
51
314.50119681287049
0
LINE
5
213
100
AcDbEntity
8
0
100
AcDbLine
10
2127.292197925547
20
173.30194958064766
30
-6.4665642613583807e-44
11
2127.3684153160689
21
182.0565537832087
31
0
0
LINE
5
214
100
AcDbEntity
8
0
100
AcDbLine
10
2127.3684153160689
20
182.0565537832087
30
0
11
2095.6196184782316
21
182.33295810614581
31
0
0
LINE
5
215
100
AcDbEntity
8
0
100
AcDbLine
10
2095.6196184782316
20
182.33295810614581
30
0
11
2095.5434010877098
21
173.57835390358474
31
0
0
ARC
5
216
100
AcDbEntity
8
0
100
AcDbCircle
10
2094.4111392422274
20
172.46563679521222
30
-4.3790577010150533e-46
40
1.5875000000000192
100
AcDbArc
50
-135.49880318712073
51
44.501196812880018
0
LINE
5
217
100
AcDbEntity
8
0
100
AcDbLine
10
2093.278877396745
20
171.35291968683973
30
-2.5046333740767123e-30
11
2072.3697978341847
21
171.53495367096977
31
0
0
ARC
5
218
100
AcDbEntity
8
0
100
AcDbCircle
10
2071.2570807258126
20
172.66721551645219
30
0
40
1.5875000000000687
100
AcDbArc
50
134.50119681288294
51
314.50119681287049
0
LINE
5
219
100
AcDbEntity
8
0
100
AcDbLine
10
2070.1443636174399
20
173.79947736193458
30
0
11
2070.2205810079618
21
182.55408156449556
31
0
0
LINE
5
220
100
AcDbEntity
8
0
100
AcDbLine
10
2070.2205810079618
20
182.55408156449556
30
0
11
2038.4717841701245
21
182.83048588743273
31
0
0
LINE
5
221
100
AcDbEntity
8
0
100
AcDbLine
10
2038.4717841701245
20
182.83048588743273
30
0
11
2038.3955667796024
21
174.07588168487149
31
0
0
ARC
5
222
100
AcDbEntity
8
0
100
AcDbCircle
10
2037.2633049341207
20
172.96316457649903
30
-6.56858655152258e-46
40
1.5875000000000192
100
AcDbArc
50
-135.49880318711999
51
44.501196812895806
0
LINE
5
223
100
AcDbEntity
8
0
100
AcDbLine
10
2036.1310430886383
20
171.8504474681265
30
-2.5046333740767123e-30
11
2015.2219635260778
21
172.03248145225649
31
0
0
ARC
5
224
100
AcDbEntity
8
0
100
AcDbCircle
10
2014.1092464177054
20
173.16474329773885
30
-2.2684887346788763e-43
40
1.5874999999998698
100
AcDbArc
50
134.50119681287126
51
314.50119681287777
0
LINE
5
225
100
AcDbEntity
8
0
100
AcDbLine
10
2012.9965293093333
20
174.29700514322124
30
-2.5046333740770196e-30
11
2013.0727466998546
21
183.05160934578242
31
0
0
LINE
5
226
100
AcDbEntity
8
0
100
AcDbLine
10
2013.0727466998546
20
183.05160934578242
30
0
11
1981.3239498620178
21
183.32801366871956
31
0
0
LINE
5
227
100
AcDbEntity
8
0
100
AcDbLine
10
1981.3239498620178
20
183.32801366871956
30
0
11
1981.247732471496
21
174.57340946615844
31
0
0
ARC
5
228
100
AcDbEntity
8
0
100
AcDbCircle
10
1980.1154706260131
20
173.46069235778594
30
7.733142208886446e-44
40
1.5874999999999162
100
AcDbArc
50
-135.49880318710481
51
44.501196812867789
0
LINE
5
229
100
AcDbEntity
8
0
100
AcDbLine
10
1978.9832087805312
20
172.34797524941328
30
-2.5046333740768794e-30
11
1958.0741292179709
21
172.53000923354335
31
0
0
ARC
5
230
100
AcDbEntity
8
0
100
AcDbCircle
10
1956.9614121095988
20
173.66227107902574
30
-3.0523400631606414e-44
40
1.5875000000000437
100
AcDbArc
50
134.50119681288368
51
314.50119681287123
0
LINE
5
231
100
AcDbEntity
8
0
100
AcDbLine
10
1955.8486950012261
20
174.7945329245081
30
2.504633374076568e-30
11
1955.924912391748
21
183.54913712706923
31
0
0
LINE
5
232
100
AcDbEntity
8
0
100
AcDbLine
10
1955.924912391748
20
183.54913712706923
30
0
11
1924.1761155539107
21
183.82554145000637
31
0
0
LINE
5
233
100
AcDbEntity
8
0
100
AcDbLine
10
1924.1761155539107
20
183.82554145000637
30
0
11
1924.0998981633891
21
175.07093724744522
31
0
0
ARC
5
234
100
AcDbEntity
8
0
100
AcDbCircle
10
1922.967636317906
20
173.95822013907281
30
6.1963666469363005e-44
40
1.5874999999999162
100
AcDbArc
50
-135.49880318710555
51
44.501196812859831
0
LINE
5
235
100
AcDbEntity
8
0
100
AcDbLine
10
1921.8353744724241
20
172.84550303070017
30
-1.8701651477994439e-43
11
1900.9262949098641
21
173.0275370148303
31
4.9303806576313238e-31
0
ARC
5
236
100
AcDbEntity
8
0
100
AcDbCircle
10
1899.8135778014916
20
174.15979886031255
30
0
40
1.5875000000000687
100
AcDbArc
50
134.50119681288294
51
314.50119681288072
0
LINE
5
237
100
AcDbEntity
8
0
100
AcDbLine
10
1898.700860693119
20
175.29206070579494
30
0
11
1898.7770780836411
21
184.04666490835612
31
0
0
LINE
5
238
100
AcDbEntity
8
0
100
AcDbLine
10
1898.7770780836411
20
184.04666490835612
30
0
11
1873.3780406133712
21
184.2677883667057
31
0
0
LINE
5
239
100
AcDbEntity
8
0
100
AcDbLine
10
1873.3780406133712
20
184.2677883667057
30
0
11
1855.2618510856523
21
166.46431463274484
31
0
0
LINE
5
240
100
AcDbEntity
8
0
100
AcDbLine
10
1855.2618510856523
20
166.46431463274484
30
0
11
1861.3983972502056
21
160.21998080082713
31
0
0
ARC
5
241
100
AcDbEntity
8
0
100
AcDbCircle
10
1861.3845770340586
20
158.63254095893527
30
0
40
1.5875000000000044
100
AcDbArc
50
-90.498803187115385
51
89.501196812876387
0
LINE
5
242
100
AcDbEntity
8
0
100
AcDbLine
10
1861.3707568179118
20
157.0451011170434
30
0
11
1846.457087406272
21
142.38886663457291
31
0
0
ARC
5
243
100
AcDbEntity
8
0
100
AcDbCircle
10
1844.8696475643801
20
142.40268685071987
30
-2.2237402387967068e-46
40
1.5875000000000037
100
AcDbArc
50
179.50119681288362
51
359.50119681287782
0
LINE
5
244
100
AcDbEntity
8
0
100
AcDbLine
10
1843.2822077224882
20
142.41650706686667
30
3.913489646994863e-32
11
1837.145661557935
21
148.66084089878433
31
0
0
LINE
5
245
100
AcDbEntity
8
0
100
AcDbLine
10
1837.145661557935
20
148.66084089878433
30
0
11
1814.5004246482883
21
126.40649873133371
31
0
0
LINE
5
246
100
AcDbEntity
8
0
100
AcDbLine
10
1814.5004246482883
20
126.40649873133371
30
0
11
1820.6369708128409
21
120.16216489941615
31
0
0
ARC
5
247
100
AcDbEntity
8
0
100
AcDbCircle
10
1820.6231505966944
20
118.57472505752438
30
-4.8648594147214108e-45
40
1.5875000000000781
100
AcDbArc
50
-90.49880318713177
51
89.501196812892786
0
LINE
5
248
100
AcDbEntity
8
0
100
AcDbLine
10
1820.6093303805471
20
116.98728521563243
30
3.5082394993976601e-45
11
1805.6956609689073
21
102.33105073316185
31
0
0
ARC
5
249
100
AcDbEntity
8
0
100
AcDbCircle
10
1804.1082211270154
20
102.34487094930884
30
-1.313717310304516e-45
40
1.5875000000000037
100
AcDbArc
50
179.50119681288362
51
359.50119681287708
0
LINE
5
250
100
AcDbEntity
8
0
100
AcDbLine
10
1802.5207812851236
20
102.35869116545564
30
3.9134896470493965e-32
11
1796.3842351205708
21
108.60302499737323
31
0
0
LINE
5
251
100
AcDbEntity
8
0
100
AcDbLine
10
1796.3842351205708
20
108.60302499737323
30
0
11
1773.7389982109241
21
86.348682829922666
31
0
0
LINE
5
252
100
AcDbEntity
8
0
100
AcDbLine
10
1773.7389982109241
20
86.348682829922666
30
0
11
1779.8755443754769
21
80.104348998005037
31
0
0
ARC
5
253
100
AcDbEntity
8
0
100
AcDbCircle
10
1779.8617241593299
20
78.516909156113257
30
-4.3995845339885614e-45
40
1.5875000000000781
100
AcDbArc
50
-90.49880318713177
51
89.501196812876373
0
LINE
5
254
100
AcDbEntity
8
0
100
AcDbLine
10
1779.8479039431827
20
76.929469314221308
30
4.4467263029464496e-45
11
1764.9342345315431
21
62.273234831750784
31
0
0
ARC
5
255
100
AcDbEntity
8
0
100
AcDbCircle
10
1763.3467946896512
20
62.287055047897766
30
-1.0509738482436128e-44
40
1.5875000000000037
100
AcDbArc
50
179.50119681288439
51
359.50119681287708
0
LINE
5
256
100
AcDbEntity
8
0
100
AcDbLine
10
1761.7593548477594
20
62.300875264044549
30
3.9134896470534012e-32
11
1755.6228086832064
21
68.545209095962193
31
0
0
LINE
5
257
100
AcDbEntity
8
0
100
AcDbLine
10
1755.6228086832064
20
68.545209095962193
30
0
11
1732.9775717735597
21
46.290866928511676
31
0
0
LINE
5
258
100
AcDbEntity
8
0
100
AcDbLine
10
1732.9775717735597
20
46.290866928511676
30
0
11
1739.1141179381125
21
40.046533096594025
31
0
0
ARC
5
259
100
AcDbEntity
8
0
100
AcDbCircle
10
1739.1002977219657
20
38.459093254702189
30
0
40
1.5874999999999999
100
AcDbArc
50
-90.498803187123627
51
89.501196812884587
0
LINE
5
260
100
AcDbEntity
8
0
100
AcDbLine
10
1739.0864775058187
20
36.871653412810332
30
0
11
1724.1728080941789
21
22.215418930339794
31
0
0
ARC
5
261
100
AcDbEntity
8
0
100
AcDbCircle
10
1722.5853682522868
20
22.229239146486705
30
0
40
1.5875000000000039
100
AcDbArc
50
179.50119681288294
51
359.50119681287924
0
LINE
5
262
100
AcDbEntity
8
0
100
AcDbLine
10
1720.9979284103949
20
22.243059362633531
30
0
11
1714.8613822458424
21
28.487393194551196
31
0
0
LINE
5
263
100
AcDbEntity
8
0
100
AcDbLine
10
1714.8613822458424
20
28.487393194551196
30
0
11
1692.2161453361957
21
6.2330510271006068
31
0
0
LINE
5
264
100
AcDbEntity
8
0
100
AcDbLine
10
1692.2161453361957
20
6.2330510271006068
30
0
11
1698.3526915007483
21
-0.011282804817075442
31
0
0
ARC
5
265
100
AcDbEntity
8
0
100
AcDbCircle
10
1698.3388712846013
20
-1.59872264670887
30
-1.9192588830230038e-45
40
1.5875000000000703
100
AcDbArc
50
-90.498803187123571
51
89.501196812876373
0
LINE
5
266
100
AcDbEntity
8
0
100
AcDbLine
10
1698.3250510684543
20
-3.1861624886007975
30
9.7995769602247247e-45
11
1683.4113816568147
21
-17.84239697107131
31
0
0
ARC
5
267
100
AcDbEntity
8
0
100
AcDbCircle
10
1681.8239418149228
20
-17.828576754924317
30
-1.4450890413349676e-44
40
1.5875000000000048
100
AcDbArc
50
179.5011968128793
51
359.50119681287708
0
LINE
5
268
100
AcDbEntity
8
0
100
AcDbLine
10
1680.236501973031
20
-17.814756538777402
30
1.7159795015736492e-43
11
1674.0999558084782
21
-11.570422706859878
31
0
0
LINE
5
269
100
AcDbEntity
8
0
100
AcDbLine
10
1674.0999558084782
20
-11.570422706859878
30
0
11
1655.9837662807604
21
-29.373896440820388
31
0
0
LINE
5
270
100
AcDbEntity
8
0
100
AcDbLine
10
1655.9837662807604
20
-29.373896440820388
30
0
11
1655.7626428224105
21
-54.772933911091279
31
0
0
LINE
5
271
100
AcDbEntity
8
0
100
AcDbLine
10
1655.7626428224105
20
-54.772933911091279
30
0
11
1664.5172470249713
21
-54.849151301613162
31
-2.4651903288156619e-31
0
ARC
5
272
100
AcDbEntity
8
0
100
AcDbCircle
10
1665.6299641333442
20
-55.981413147095509
30
-2.627434620609032e-45
40
1.5874999999998445
100
AcDbArc
50
-45.498803187122
51
134.50119681288987
0
LINE
5
273
100
AcDbEntity
8
0
100
AcDbLine
10
1666.7426812417166
20
-57.113674992577863
30
-2.5046333740767123e-30
11
1666.5606472575862
21
-78.02275455513788
31
0
0
ARC
5
274
100
AcDbEntity
8
0
100
AcDbCircle
10
1665.428385412104
20
-79.135471663510401
30
0
40
1.5875000000001189
100
AcDbArc
50
-135.49880318711632
51
44.501196812885766
0
LINE
5
275
100
AcDbEntity
8
0
100
AcDbLine
10
1664.2961235666216
20
-80.248188771883065
30
0
11
1655.5415193640604
21
-80.171971381361061
31
0
0
LINE
5
276
100
AcDbEntity
8
0
100
AcDbLine
10
1655.5415193640604
20
-80.171971381361061
30
0
11
1655.2651150411234
21
-111.92076821919825
31
0
0
LINE
5
277
100
AcDbEntity
8
0
100
AcDbLine
10
1655.2651150411234
20
-111.92076821919825
30
0
11
1664.0197192436847
21
-111.99698560972018
31
-4.9303806576313238e-31
0
ARC
5
278
100
AcDbEntity
8
0
100
AcDbCircle
10
1665.1324363520571
20
-113.12924745520246
30
5.5162442477468404e-44
40
1.5875000000000437
100
AcDbArc
50
-45.498803187121851
51
134.50119681287998
0
LINE
5
279
100
AcDbEntity
8
0
100
AcDbLine
10
1666.2451534604295
20
-114.26150930068481
30
2.5046333740767362e-30
11
1666.0631194762996
21
-135.17058886324486
31
0
0
ARC
5
280
100
AcDbEntity
8
0
100
AcDbCircle
10
1664.9308576308169
20
-136.28330597161741
30
7.6633509767763434e-44
40
1.5874999999998662
100
AcDbArc
50
-135.4988031871128
51
44.501196812874994
0
LINE
5
281
100
AcDbEntity
8
0
100
AcDbLine
10
1663.7985957853348
20
-137.39602307998999
30
-5.0092667481533182e-30
11
1655.0439915827735
21
-137.31980568946801
31
0
0
LINE
5
282
100
AcDbEntity
8
0
100
AcDbLine
10
1655.0439915827735
20
-137.31980568946801
30
0
11
1654.7675872598368
21
-169.06860252730519
31
0
0
LINE
5
283
100
AcDbEntity
8
0
100
AcDbLine
10
1654.7675872598368
20
-169.06860252730519
30
0
11
1663.5221914623978
21
-169.14481991782714
31
-2.4651903288156619e-31
0
ARC
5
284
100
AcDbEntity
8
0
100
AcDbCircle
10
1664.6349085707702
20
-170.27708176330944
30
-2.0800524079821503e-44
40
1.5875000000000437
100
AcDbArc
50
-45.498803187116344
51
134.50119681287927
0
LINE
5
285
100
AcDbEntity
8
0
100
AcDbLine
10
1665.7476256791429
20
-171.4093436087918
30
-1.3443259482076661e-43
11
1665.5655916950127
21
-192.31842317135187
31
0
0
ARC
5
286
100
AcDbEntity
8
0
100
AcDbCircle
10
1664.4333298495303
20
-193.43114027972433
30
0
40
1.5875000000001189
100
AcDbArc
50
-135.49880318711706
51
44.501196812878547
0
LINE
5
287
100
AcDbEntity
8
0
100
AcDbLine
10
1663.3010680040479
20
-194.54385738809697
30
0
11
1654.5464638014869
21
-194.46763999757493
31
0
0
LINE
5
288
100
AcDbEntity
8
0
100
AcDbLine
10
1654.5464638014869
20
-194.46763999757493
30
0
11
1654.2700594785497
21
-226.21643683541214
31
0
0
LINE
5
289
100
AcDbEntity
8
0
100
AcDbLine
10
1654.2700594785497
20
-226.21643683541214
30
0
11
1663.0246636811107
21
-226.29265422593409
31
2.4651903288156619e-31
0
ARC
5
290
100
AcDbEntity
8
0
100
AcDbCircle
10
1664.1373807894838
20
-227.42491607141636
30
-1.7078325033958708e-44
40
1.5874999999998445
100
AcDbArc
50
-45.498803187128054
51
134.50119681289755
0
LINE
5
291
100
AcDbEntity
8
0
100
AcDbLine
10
1665.250097897856
20
-228.55717791689872
30
2.5046333740767134e-30
11
1665.0680639137261
21
-249.46625747945887
31
0
0
ARC
5
292
100
AcDbEntity
8
0
100
AcDbCircle
10
1663.9358020682437
20
-250.57897458783134
30
-1.1128964610476013e-44
40
1.5875000000000687
100
AcDbArc
50
-135.49880318711854
51
44.501196812878547
0
LINE
5
293
100
AcDbEntity
8
0
100
AcDbLine
10
1662.8035402227613
20
-251.69169169620392
30
-2.5046333740769516e-30
11
1654.0489360202
21
-251.61547430568191
31
0
0
LINE
5
294
100
AcDbEntity
8
0
100
AcDbLine
10
1654.0489360202
20
-251.61547430568191
30
0
11
1653.7725316972628
21
-283.36427114351915
31
0
0
LINE
5
295
100
AcDbEntity
8
0
100
AcDbLine
10
1653.7725316972628
20
-283.36427114351915
30
0
11
1662.5271358998239
21
-283.44048853404104
31
2.4651903288156619e-31
0
ARC
5
296
100
AcDbEntity
8
0
100
AcDbCircle
10
1663.6398530081965
20
-284.57275037952337
30
5.8395418670798652e-44
40
1.5875000000000183
100
AcDbArc
50
-45.498803187115641
51
134.50119681288439
0
LINE
5
297
100
AcDbEntity
8
0
100
AcDbLine
10
1664.7525701165691
20
-285.7050122250057
30
2.504633374076822e-30
11
1664.570536132439
21
-306.61409178756583
31
0
0
ARC
5
298
100
AcDbEntity
8
0
100
AcDbCircle
10
1663.4382742869568
20
-307.72680889593835
30
-6.644193719641218e-44
40
1.5874999999999941
100
AcDbArc
50
-135.49880318712147
51
44.501196812885766
0
LINE
5
299
100
AcDbEntity
8
0
100
AcDbLine
10
1662.3060124414744
20
-308.83952600431081
30
-2.5046333740767449e-30
11
1653.5514082389134
21
-308.76330861378892
31
0
0
LINE
5
300
100
AcDbEntity
8
0
100
AcDbLine
10
1653.5514082389134
20
-308.76330861378892
30
0
11
1653.3302847805639
21
-334.16234608406
31
0
0
LINE
5
301
100
AcDbEntity
8
0
100
AcDbLine
10
1653.3302847805639
20
-334.16234608406
30
0
11
1671.1337585145245
21
-352.27853561177739
31
0
0
LINE
5
302
100
AcDbEntity
8
0
100
AcDbLine
10
1671.1337585145245
20
-352.27853561177739
30
0
11
1677.3780923464419
21
-346.14198944722455
31
0
0
ARC
5
303
100
AcDbEntity
8
0
100
AcDbCircle
10
1678.9655321883338
20
-346.15580966337149
30
0
40
1.587500000000005
100
AcDbArc
50
-0.4988031871214913
51
179.50119681287853
0
LINE
5
304
100
AcDbEntity
8
0
100
AcDbLine
10
1680.5529720302256
20
-346.16962987951842
30
0
11
1695.2092065126965
21
-361.08329929115831
31
0
0
ARC
5
305
100
AcDbEntity
8
0
100
AcDbCircle
10
1695.1953862965497
20
-362.67073913305023
30
0
40
1.5875000000000044
100
AcDbArc
50
-90.498803187123627
51
89.501196812884629
0
LINE
5
306
100
AcDbEntity
8
0
100
AcDbLine
10
1695.1815660804027
20
-364.2581789749421
30
0
11
1688.9372322484849
21
-370.39472513949488
31
0
0
LINE
5
307
100
AcDbEntity
8
0
100
AcDbLine
10
1688.9372322484849
20
-370.39472513949488
30
0
11
1711.1915744159353
21
-393.03996204914171
31
0
0
LINE
5
308
100
AcDbEntity
8
0
100
AcDbLine
10
1711.1915744159353
20
-393.03996204914171
30
0
11
1717.4359082478531
21
-386.90341588458887
31
0
0
ARC
5
309
100
AcDbEntity
8
0
100
AcDbCircle
10
1719.023348089745
20
-386.91723610073564
30
4.4474804775934136e-46
40
1.587500000000005
100
AcDbArc
50
-0.49880318712291621
51
179.50119681288439
0
LINE
5
310
100
AcDbEntity
8
0
100
AcDbLine
10
1720.6107879316369
20
-386.93105631688263
30
-3.913489646994863e-32
11
1735.2670224141075
21
-401.84472572852269
31
0
0
ARC
5
311
100
AcDbEntity
8
0
100
AcDbCircle
10
1735.2532021979607
20
-403.43216557041455
30
-8.3817901308491255e-46
40
1.5875000000000044
100
AcDbArc
50
-90.498803187115385
51
89.501196812884601
0
LINE
5
312
100
AcDbEntity
8
0
100
AcDbLine
10
1735.2393819818139
20
-405.01960541230642
30
-1.5144028381134487e-45
11
1728.9950481498959
21
-411.15615157685914
31
0
0
LINE
5
313
100
AcDbEntity
8
0
100
AcDbLine
10
1728.9950481498959
20
-411.15615157685914
30
0
11
1751.2493903173463
21
-433.80138848650597
31
0
0
LINE
5
314
100
AcDbEntity
8
0
100
AcDbLine
10
1751.2493903173463
20
-433.80138848650597
30
0
11
1757.4937241492644
21
-427.66484232195319
31
0
0
ARC
5
315
100
AcDbEntity
8
0
100
AcDbCircle
10
1759.0811639911558
20
-427.67866253809996
30
0
40
1.5875000000000044
100
AcDbArc
50
-0.4988031871192522
51
179.50119681288439
0
LINE
5
316
100
AcDbEntity
8
0
100
AcDbLine
10
1760.6686038330477
20
-427.69248275424684
30
0
11
1775.3248383155185
21
-442.6061521658869
31
0
0
ARC
5
317
100
AcDbEntity
8
0
100
AcDbCircle
10
1775.3110180993715
20
-444.19359200777876
30
4.3790577010150533e-46
40
1.5875000000000044
100
AcDbArc
50
-90.498803187115385
51
89.501196812876387
0
LINE
5
318
100
AcDbEntity
8
0
100
AcDbLine
10
1775.2971978832247
20
-445.78103184967063
30
5.0092667481534268e-30
11
1769.0528640513071
21
-451.91757801422347
31
0
0
LINE
5
319
100
AcDbEntity
8
0
100
AcDbLine
10
1769.0528640513071
20
-451.91757801422347
30
0
11
1791.3072062187578
21
-474.56281492387029
31
0
0
LINE
5
320
100
AcDbEntity
8
0
100
AcDbLine
10
1791.3072062187578
20
-474.56281492387029
30
0
11
1797.5515400506752
21
-468.42626875931751
31
0
0
ARC
5
321
100
AcDbEntity
8
0
100
AcDbCircle
10
1799.1389798925672
20
-468.44008897546428
30
4.4474804775934136e-46
40
1.587500000000005
100
AcDbArc
50
-0.49880318712291621
51
179.50119681288513
0
LINE
5
322
100
AcDbEntity
8
0
100
AcDbLine
10
1800.7264197344591
20
-468.45390919161127
30
-3.913489646994863e-32
11
1815.3826542169295
21
-483.36757860325122
31
0
0
ARC
5
323
100
AcDbEntity
8
0
100
AcDbCircle
10
1815.3688340007827
20
-484.95501844514308
30
3.4211388289180104e-48
40
1.5875000000000044
100
AcDbArc
50
-90.498803187123627
51
89.501196812884601
0
LINE
5
324
100
AcDbEntity
8
0
100
AcDbLine
10
1815.3550137846357
20
-486.54245828703495
30
9.7084925276575146e-46
11
1809.1106799527183
21
-492.67900445158773
31
0
0
LINE
5
325
100
AcDbEntity
8
0
100
AcDbLine
10
1809.1106799527183
20
-492.67900445158773
30
0
11
1831.3650221201688
21
-515.3242413612345
31
0
0
LINE
5
326
100
AcDbEntity
8
0
100
AcDbLine
10
1831.3650221201688
20
-515.3242413612345
30
0
11
1837.6093559520862
21
-509.18769519668172
31
0
0
ARC
5
327
100
AcDbEntity
8
0
100
AcDbCircle
10
1839.1967957939783
20
-509.20151541282848
30
-4.4132690893042335e-46
40
1.5875000000000064
100
AcDbArc
50
-0.49880318712729266
51
179.50119681288513
0
LINE
5
328
100
AcDbEntity
8
0
100
AcDbLine
10
1840.7842356358701
20
-509.21533562897559
30
-3.913489646994863e-32
11
1855.4404701183403
21
-524.12900504061554
31
0
0
ARC
5
329
100
AcDbEntity
8
0
100
AcDbCircle
10
1855.4266499021937
20
-525.71644488250729
30
0
40
1.5875000000000044
100
AcDbArc
50
-90.498803187115385
51
89.501196812892772
0
LINE
5
330
100
AcDbEntity
8
0
100
AcDbLine
10
1855.412829686047
20
-527.30388472439915
30
5.0092667481534261e-30
11
1849.1684958541293
21
-533.44043088895205
31
0
0
LINE
5
331
100
AcDbEntity
8
0
100
AcDbLine
10
1849.1684958541293
20
-533.44043088895205
30
0
11
1866.9719695880897
21
-551.55662041666938
31
0
0
LINE
5
332
100
AcDbEntity
8
0
100
AcDbLine
10
1866.9719695880897
20
-551.55662041666938
30
0
11
1892.3710070583606
21
-551.77774387501961
31
0
0
LINE
5
333
100
AcDbEntity
8
0
100
AcDbLine
10
1892.3710070583606
20
-551.77774387501961
30
0
11
1892.4472244488825
21
-543.02313967245868
31
0
0
ARC
5
334
100
AcDbEntity
8
0
100
AcDbCircle
10
1893.5794862943649
20
-541.91042256408605
30
2.2921630153872641e-46
40
1.5875000000000192
100
AcDbArc
50
44.501196812880018
51
224.50119681288294
0
LINE
5
335
100
AcDbEntity
8
0
100
AcDbLine
10
1894.7117481398473
20
-540.79770545571353
30
2.5046333740766132e-30
11
1915.6208277024073
21
-540.97973943984368
31
0
0
ARC
5
336
100
AcDbEntity
8
0
100
AcDbCircle
10
1916.7335448107797
20
-542.11200128532585
30
1.5487153364627563e-43
40
1.5875000000000183
100
AcDbArc
50
-45.498803187117062
51
134.50119681288285
0
LINE
5
337
100
AcDbEntity
8
0
100
AcDbLine
10
1917.8462619191523
20
-543.24426313080824
30
2.5046333740768549e-30
11
1917.7700445286303
21
-551.99886733336939
31
0
0
LINE
5
338
100
AcDbEntity
8
0
100
AcDbLine
10
1917.7700445286303
20
-551.99886733336939
30
0
11
1949.5188413664675
21
-552.27527165630647
31
0
0
LINE
5
339
100
AcDbEntity
8
0
100
AcDbLine
10
1949.5188413664675
20
-552.27527165630647
30
0
11
1949.5950587569894
21
-543.52066745374555
31
0
0
ARC
5
340
100
AcDbEntity
8
0
100
AcDbCircle
10
1950.727320602472
20
-542.40795034537291
30
0
40
1.5875000000000192
100
AcDbArc
50
44.501196812880018
51
224.50119681287717
0
LINE
5
341
100
AcDbEntity
8
0
100
AcDbLine
10
1951.8595824479544
20
-541.29523323700039
30
0
11
1972.7686620105144
21
-541.47726722113043
31
0
0
ARC
5
342
100
AcDbEntity
8
0
100
AcDbCircle
10
1973.8813791188868
20
-542.60952906661282
30
-3.6784084688526448e-44
40
1.5874999999998698
100
AcDbArc
50
-45.498803187122917
51
134.50119681287711
0
LINE
5
343
100
AcDbEntity
8
0
100
AcDbLine
10
1974.9940962272592
20
-543.74179091209521
30
2.504633374076713e-30
11
1974.9178788367374
21
-552.49639511465625
31
0
0
LINE
5
344
100
AcDbEntity
8
0
100
AcDbLine
10
1974.9178788367374
20
-552.49639511465625
30
0
11
2006.6666756745747
21
-552.77279943759345
31
0
0
LINE
5
345
100
AcDbEntity
8
0
100
AcDbLine
10
2006.6666756745747
20
-552.77279943759345
30
0
11
2006.7428930650965
21
-544.01819523503218
31
0
0
ARC
5
346
100
AcDbEntity
8
0
100
AcDbCircle
10
2007.8751549105787
20
-542.90547812665966
30
8.7581154020301067e-45
40
1.587500000000222
100
AcDbArc
50
44.501196812874277
51
224.50119681288575
0
LINE
5
347
100
AcDbEntity
8
0
100
AcDbLine
10
2009.0074167560613
20
-541.79276101828714
30
5.0092667481534723e-30
11
2029.9164963186213
21
-541.9747950024173
31
0
0
ENDSEC
0
SECTION
2
OBJECTS
0
DICTIONARY
5
C
100
AcDbDictionary
3
ACAD_GROUP
350
D
3
ACAD_MLINESTYLE
350
17
0
DICTIONARY
5
D
100
AcDbDictionary
0
DICTIONARY
5
1A
330
C
100
AcDbDictionary
0
DICTIONARY
5
17
100
AcDbDictionary
0
ENDSEC
0
EOF
